# xmcd CD database file generated by OrangeCD 4.3
#
# Track frame offsets:
#	150
#	1942
#	19359
#	37749
#	53009
#	75967
#	93210
#	112455
#	125863
#	137867
#	156421
#	169343
#	182220
#	205050
#	221648
#	229381
#	243879
#
# Disc length: 3324 seconds
#
# Revision: 0
# Processed by: cddbd v1.4PL0 Copyright (c) Steve Scherf et al.
# Submitted via: OrangeCD 4.3
#
DISCID=eb0cfa11
DTITLE=Various Artist - Santa Ana's Most Wanted
DYEAR=1900
DGENRE=
TTITLE0=Intro
TTITLE1=City That Im from
TTITLE2=Sick Ass G's
TTITLE3=Shoot Ya
TTITLE4=No Matter What Happens
TTITLE5=Michelle
TTITLE6=Le Me Try
TTITLE7=Saturday
TTITLE8=For The Haters
TTITLE9=Warfare
TTITLE10=Players Out 2 Play
TTITLE11=2 The Critics
TTITLE12=Downs ass G's
TTITLE13=Fuck The Heater
TTITLE14=U Don't Want 2
TTITLE15=Tonight (remix)
TTITLE16=Outro
EXTD=
EXTT0=
EXTT1=
EXTT2=
EXTT3=
EXTT4=
EXTT5=
EXTT6=
EXTT7=
EXTT8=
EXTT9=
EXTT10=
EXTT11=
EXTT12=
EXTT13=
EXTT14=
EXTT15=
EXTT16=
PLAYORDER=
